<svg width="20" height="20" viewBox="0 0 20 20" fill="none" xmlns="http://www.w3.org/2000/svg">
<g clip-path="url(#clip0_163_2635)">
<path d="M19.7874 10.225C19.7874 9.56666 19.7291 8.94166 19.6291 8.33333H10.2124V12.0917H15.6041C15.3624 13.325 14.6541 14.3667 13.6041 15.075V17.575H16.8207C18.7041 15.8333 19.7874 13.2667 19.7874 10.225Z" fill="#4285F4"/>
<path d="M10.2124 20C12.9124 20 15.1707 19.1 16.8207 17.575L13.6041 15.075C12.7041 15.675 11.5624 16.0417 10.2124 16.0417C7.60407 16.0417 5.39573 14.2833 4.60407 11.9083H1.2874V14.4833C2.92907 17.75 6.30407 20 10.2124 20Z" fill="#34A853"/>
<path d="M4.60407 11.9083C4.39574 11.3083 4.2874 10.6667 4.2874 9.99999C4.2874 9.33333 4.40407 8.69166 4.60407 8.09166V5.51666H1.2874C0.604068 6.86666 0.212402 8.38333 0.212402 9.99999C0.212402 11.6167 0.604068 13.1333 1.2874 14.4833L4.60407 11.9083Z" fill="#FBBC05"/>
<path d="M10.2124 3.95833C11.6874 3.95833 13.0041 4.46667 14.0457 5.45834L16.8957 2.60833C15.1707 0.991667 12.9124 0 10.2124 0C6.30407 0 2.92907 2.25 1.2874 5.51667L4.60407 8.09167C5.39573 5.71667 7.60407 3.95833 10.2124 3.95833Z" fill="#EA4335"/>
</g>
<defs>
<clipPath id="clip0_163_2635">
<rect width="20" height="20" fill="white"/>
</clipPath>
</defs>
</svg>
